<?xml version="1.0" standalone="no"?>
<!DOCTYPE svg PUBLIC "-//W3C//DTD SVG 20010904//EN"
 "http://www.w3.org/TR/2001/REC-SVG-20010904/DTD/svg10.dtd">
<svg version="1.0" xmlns="http://www.w3.org/2000/svg"
 width="512.000000pt" height="512.000000pt" viewBox="0 0 512.000000 512.000000"
 preserveAspectRatio="xMidYMid meet">
<metadata>
Created by potrace 1.14, written by Peter Selinger 2001-2017
</metadata>
<g transform="translate(0.000000,512.000000) scale(0.100000,-0.100000)"
fill="#000000" stroke="none">
<path d="M995 4465 c-219 -48 -349 -166 -391 -352 -20 -90 -15 -225 11 -293 9
-25 18 -52 19 -61 3 -21 65 -106 108 -145 54 -51 147 -107 342 -203 161 -79
189 -96 234 -146 39 -43 52 -65 57 -99 9 -61 -9 -112 -58 -163 -61 -63 -111
-77 -261 -70 -130 5 -216 26 -389 92 -49 20 -91 34 -92 33 -2 -2 -4 -75 -6
-162 l-4 -160 94 -33 c140 -50 264 -67 451 -60 212 7 330 43 449 137 211 167
226 530 29 723 -32 31 -63 57 -69 57 -6 0 -29 13 -52 29 -23 15 -125 70 -227
121 -263 133 -319 189 -300 303 11 69 20 86 64 125 44 39 91 52 183 52 87 0
178 -18 298 -60 50 -17 96 -32 104 -33 8 -1 34 48 71 135 l57 137 -65 26 c-36
14 -84 30 -106 35 -23 5 -84 18 -136 29 -112 24 -319 27 -415 6z"/>
<path d="M1895 3448 c62 -183 200 -589 307 -903 l193 -570 205 -3 205 -2 304
892 c167 491 306 899 308 906 4 9 -36 12 -180 12 l-185 0 -26 -77 c-204 -624
-365 -1158 -396 -1315 -21 -108 -35 -91 -84 112 -21 85 -118 407 -215 715
l-177 560 -185 3 -186 2 112 -332z"/>
<path d="M3422 2663 c-95 -264 -622 -1767 -622 -1774 0 -10 236 -12 326 -3
l59 6 59 194 c33 107 66 204 73 214 14 19 27 20 347 20 255 0 336 -3 344 -13
10 -11 68 -203 109 -360 l18 -67 190 6 c104 4 191 7 192 8 1 1 -119 346 -266
766 -148 421 -288 825 -312 897 l-44 133 -232 0 -231 0 -10 -27z m258 -277 c0
-6 34 -122 75 -256 41 -134 77 -254 80 -268 2 -13 18 -69 35 -124 17 -55 29
-102 27 -104 -7 -7 -443 -18 -460 -11 -13 5 -14 11 -2 49 7 24 58 194 114 378
56 184 103 341 106 348 6 16 25 6 25 -12z"/>
</g>
</svg>
