<svg id="skills" xmlns="http://www.w3.org/2000/svg">

  <symbol id="html5" viewBox="0 0 384 512">
    <path
      d="M0 32l34.9 395.8L191.5 480l157.6-52.2L384 32H0zm308.2 127.9H124.4l4.1 49.4h175.6l-13.6 148.4-97.9 27v.3h-1.1l-98.7-27.3-6-75.8h47.7L138 320l53.5 14.5 53.7-14.5 6-62.2H84.3L71.5 112.2h241.1l-4.4 47.7z"/>
  </symbol>

  <symbol id="css3" viewBox="0 0 384 512">
    <path
      d="M0 32l34.9 395.8L192 480l157.1-52.2L384 32H0zm313.1 80l-4.8 47.3L193 208.6l-.3.1h111.5l-12.8 146.6-98.2 28.7-98.8-29.2-6.4-73.9h48.9l3.2 38.3 52.6 13.3 54.7-15.4 3.7-61.6-166.3-.5v-.1l-.2.1-3.6-46.3L193.1 162l6.5-2.7H76.7L70.9 112h242.2z"/>
  </symbol>

  <symbol id="js" viewBox="0 0 448 512">
    <path
      d="M400 32H48C21.5 32 0 53.5 0 80v352c0 26.5 21.5 48 48 48h352c26.5 0 48-21.5 48-48V80c0-26.5-21.5-48-48-48zM243.8 381.4c0 43.6-25.6 63.5-62.9 63.5-33.7 0-53.2-17.4-63.2-38.5l34.3-20.7c6.6 11.7 12.6 21.6 27.1 21.6 13.8 0 22.6-5.4 22.6-26.5V237.7h42.1v143.7zm99.6 63.5c-39.1 0-64.4-18.6-76.7-43l34.3-19.8c9 14.7 20.8 25.6 41.5 25.6 17.4 0 28.6-8.7 28.6-20.8 0-14.4-11.4-19.5-30.7-28l-10.5-4.5c-30.4-12.9-50.5-29.2-50.5-63.5 0-31.6 24.1-55.6 61.6-55.6 26.8 0 46 9.3 59.8 33.7L368 290c-7.2-12.9-15-18-27.1-18-12.3 0-20.1 7.8-20.1 18 0 12.6 7.8 17.7 25.9 25.6l10.5 4.5c35.8 15.3 55.9 31 55.9 66.2 0 37.8-29.8 58.6-69.7 58.6z"/>
  </symbol>

  <symbol id="git" viewBox="0 0 448 512">
    <path
      d="M100.59 334.24c48.57 3.31 58.95 2.11 58.95 11.94 0 20-65.55 20.06-65.55 1.52.01-5.09 3.29-9.4 6.6-13.46zm27.95-116.64c-32.29 0-33.75 44.47-.75 44.47 32.51 0 31.71-44.47.75-44.47zM448 80v352a48 48 0 0 1-48 48H48a48 48 0 0 1-48-48V80a48 48 0 0 1 48-48h352a48 48 0 0 1 48 48zm-227 69.31c0 14.49 8.38 22.88 22.86 22.88 14.74 0 23.13-8.39 23.13-22.88S258.62 127 243.88 127c-14.48 0-22.88 7.84-22.88 22.31zM199.18 195h-49.55c-25-6.55-81.56-4.85-81.56 46.75 0 18.8 9.4 32 21.85 38.11C74.23 294.23 66.8 301 66.8 310.6c0 6.87 2.79 13.22 11.18 16.76-8.9 8.4-14 14.48-14 25.92C64 373.35 81.53 385 127.52 385c44.22 0 69.87-16.51 69.87-45.73 0-36.67-28.23-35.32-94.77-39.38l8.38-13.43c17 4.74 74.19 6.23 74.19-42.43 0-11.69-4.83-19.82-9.4-25.67l23.38-1.78zm84.34 109.84l-13-1.78c-3.82-.51-4.07-1-4.07-5.09V192.52h-52.6l-2.79 20.57c15.75 5.55 17 4.86 17 10.17V298c0 5.62-.31 4.58-17 6.87v20.06h72.42zM384 315l-6.87-22.37c-40.93 15.37-37.85-12.41-37.85-16.73v-60.72h37.85v-25.41h-35.82c-2.87 0-2 2.52-2-38.63h-24.18c-2.79 27.7-11.68 38.88-34 41.42v22.62c20.47 0 19.82-.85 19.82 2.54v66.57c0 28.72 11.43 40.91 41.67 40.91 14.45 0 30.45-4.83 41.38-10.2z"/>
  </symbol>

  <symbol id="markdown" viewBox="0 0 640 512">
    <path
      d="M593.8 59.1H46.2C20.7 59.1 0 79.8 0 105.2v301.5c0 25.5 20.7 46.2 46.2 46.2h547.7c25.5 0 46.2-20.7 46.1-46.1V105.2c0-25.4-20.7-46.1-46.2-46.1zM338.5 360.6H277v-120l-61.5 76.9-61.5-76.9v120H92.3V151.4h61.5l61.5 76.9 61.5-76.9h61.5v209.2zm135.3 3.1L381.5 256H443V151.4h61.5V256H566z"/>
  </symbol>

  <symbol id="github" viewBox="0 0 496 512">
    <path
      d="M165.9 397.4c0 2-2.3 3.6-5.2 3.6-3.3.3-5.6-1.3-5.6-3.6 0-2 2.3-3.6 5.2-3.6 3-.3 5.6 1.3 5.6 3.6zm-31.1-4.5c-.7 2 1.3 4.3 4.3 4.9 2.6 1 5.6 0 6.2-2s-1.3-4.3-4.3-5.2c-2.6-.7-5.5.3-6.2 2.3zm44.2-1.7c-2.9.7-4.9 2.6-4.6 4.9.3 2 2.9 3.3 5.9 2.6 2.9-.7 4.9-2.6 4.6-4.6-.3-1.9-3-3.2-5.9-2.9zM244.8 8C106.1 8 0 113.3 0 252c0 110.9 69.8 205.8 169.5 239.2 12.8 2.3 17.3-5.6 17.3-12.1 0-6.2-.3-40.4-.3-61.4 0 0-70 15-84.7-29.8 0 0-11.4-29.1-27.8-36.6 0 0-22.9-15.7 1.6-15.4 0 0 24.9 2 38.6 25.8 21.9 38.6 58.6 27.5 72.9 20.9 2.3-16 8.8-27.1 16-33.7-55.9-6.2-112.3-14.3-112.3-110.5 0-27.5 7.6-41.3 23.6-58.9-2.6-6.5-11.1-33.3 2.6-67.9 20.9-6.5 69 27 69 27 20-5.6 41.5-8.5 62.8-8.5s42.8 2.9 62.8 8.5c0 0 48.1-33.6 69-27 13.7 34.7 5.2 61.4 2.6 67.9 16 17.7 25.8 31.5 25.8 58.9 0 96.5-58.9 104.2-114.8 110.5 9.2 7.9 17 22.9 17 46.4 0 33.7-.3 75.4-.3 83.6 0 6.5 4.6 14.4 17.3 12.1C428.2 457.8 496 362.9 496 252 496 113.3 383.5 8 244.8 8zM97.2 352.9c-1.3 1-1 3.3.7 5.2 1.6 1.6 3.9 2.3 5.2 1 1.3-1 1-3.3-.7-5.2-1.6-1.6-3.9-2.3-5.2-1zm-10.8-8.1c-.7 1.3.3 2.9 2.3 3.9 1.6 1 3.6.7 4.3-.7.7-1.3-.3-2.9-2.3-3.9-2-.6-3.6-.3-4.3.7zm32.4 35.6c-1.6 1.3-1 4.3 1.3 6.2 2.3 2.3 5.2 2.6 6.5 1 1.3-1.3.7-4.3-1.3-6.2-2.2-2.3-5.2-2.6-6.5-1zm-11.4-14.7c-1.6 1-1.6 3.6 0 5.9 1.6 2.3 4.3 3.3 5.6 2.3 1.6-1.3 1.6-3.9 0-6.2-1.4-2.3-4-3.3-5.6-2z"/>
  </symbol>

  <symbol id="cssModules" viewBox="0 0 1000 1000">
    <g transform="translate(3.7129 -62.36)">
      <g id="flowRoot3336" transform="matrix(1.8595,0,0,1.8595,-30.174,333.87)">
        <path id="path4379"
              d="m105.49 108.89q12.261 0 19.028 6.46 6.7676 6.46 7.5146 14.678h-8.5254q-1.4502-6.2402-5.8008-9.8877-4.3066-3.6475-12.129-3.6475-9.5361 0-15.425 6.7236-5.8447 6.6797-5.8447 20.522 0 11.338 5.2734 18.413 5.3174 7.0312 15.82 7.0312 9.668 0 14.722-7.4268 2.6807-3.9111 3.999-10.283h8.5254q-1.1426 10.195-7.5586 17.095-7.6904 8.3057-20.742 8.3057-11.25 0-18.896-6.8115-10.063-9.0088-10.063-27.817 0-14.282 7.5586-23.423 8.1738-9.9316 22.544-9.9316zm-1.7578 0z"/>
        <path id="path4381"
              d="m149.04 154.37q0.30761 5.4932 2.5928 8.9209 4.3506 6.416 15.337 6.416 4.9219 0 8.9648-1.4062 7.8223-2.7246 7.8223-9.7559 0-5.2734-3.2959-7.5146-3.3398-2.1973-10.459-3.8232l-8.7451-1.9775q-8.5693-1.9336-12.129-4.2627-6.1524-4.043-6.1524-12.085 0-8.7012 6.0205-14.282 6.0205-5.5811 17.051-5.5811 10.151 0 17.227 4.9219 7.1192 4.8779 7.1192 15.645h-8.2178q-0.65918-5.1856-2.8125-7.9541-3.999-5.0537-13.579-5.0537-7.7344 0-11.118 3.252-3.3838 3.252-3.3838 7.5586 0 4.7461 3.9551 6.9434 2.5928 1.4062 11.733 3.5156l9.0527 2.0654q6.5478 1.4941 10.107 4.0869 6.1523 4.5264 6.1523 13.14 0 10.723-7.8223 15.337-7.7783 4.6143-18.105 4.6143-12.041 0-18.853-6.1523-6.8115-6.1084-6.6797-16.567h8.2178zm17.666-45.483z"/>
        <path id="path4383"
              d="m208.98 154.37q0.30762 5.4932 2.5928 8.9209 4.3506 6.416 15.337 6.416 4.9219 0 8.9648-1.4062 7.8223-2.7246 7.8223-9.7559 0-5.2734-3.2959-7.5146-3.3398-2.1973-10.459-3.8232l-8.7451-1.9775q-8.5693-1.9336-12.129-4.2627-6.1523-4.043-6.1523-12.085 0-8.7012 6.0205-14.282 6.0205-5.5811 17.051-5.5811 10.151 0 17.227 4.9219 7.1191 4.8779 7.1191 15.645h-8.2178q-0.65918-5.1856-2.8125-7.9541-3.999-5.0537-13.579-5.0537-7.7344 0-11.118 3.252-3.3838 3.252-3.3838 7.5586 0 4.7461 3.9551 6.9434 2.5928 1.4062 11.733 3.5156l9.0527 2.0654q6.5479 1.4941 10.107 4.0869 6.1523 4.5264 6.1523 13.14 0 10.723-7.8223 15.337-7.7783 4.6143-18.105 4.6143-12.041 0-18.853-6.1523-6.8115-6.1084-6.6797-16.567h8.2178zm17.666-45.483z"/>
        <path id="path4385"
              d="m78.063 223.14h12.524l18.545 54.58 18.413-54.58h12.393v64.556h-8.3057v-38.101q0-1.9775 0.0879-6.5478t0.0879-9.7998l-18.413 54.448h-8.6572l-18.545-54.448v1.9775q0 2.373 0.08789 7.251 0.13184 4.834 0.13184 7.1191v38.101h-8.3496v-64.556z"/>
        <path id="path4387"
              d="m181.2 221.39q17.095 0 25.312 10.986 6.416 8.5693 6.416 21.929 0 14.458-7.3389 24.038-8.6133 11.25-24.565 11.25-14.897 0-23.423-9.8438-7.6025-9.4922-7.6025-23.994 0-13.096 6.5039-22.412 8.3496-11.953 24.697-11.953zm0.87891 60.381q11.558 0 16.699-8.2617 5.1856-8.3057 5.1856-19.072 0-11.382-5.9766-18.325-5.9326-6.9434-16.26-6.9434-10.02 0-16.348 6.8994-6.3281 6.8555-6.3281 20.259 0 10.723 5.4053 18.105 5.4492 7.3389 17.622 7.3389zm-0.61523-60.381z"/>
        <path id="path4389"
              d="m248.09 280.23q4.4385 0 7.2949-0.92285 5.0977-1.7139 8.3496-6.5918 2.5928-3.9111 3.7354-10.02 0.65918-3.6475 0.65918-6.7676 0-11.997-4.79-18.633-4.75-6.63-15.34-6.63h-15.513v49.57h15.601zm-24.39-57.085h26.147q13.315 0 20.654 9.4482 6.5478 8.5254 6.5478 21.841 0 10.283-3.8672 18.589-6.8115 14.678-23.423 14.678h-26.06v-64.556z"/>
        <path id="path4391"
              d="m297.83 223.14v39.902q0 7.0312 2.6367 11.689 3.9111 7.0312 13.184 7.0312 11.118 0 15.117-7.6025 2.1533-4.1309 2.1533-11.118v-39.902h8.877v36.255q0 11.909-3.208 18.325-5.8887 11.689-22.236 11.689-16.348 0-22.192-11.689-3.208-6.416-3.208-18.325v-36.255h8.877zm16.567 0z"/>
        <path id="path4393" d="m353.21 223.14h8.7451v56.865h32.695v7.6904h-41.44v-64.556z"/>
        <path id="path4395"
              d="m404.14 223.14h47.065v7.9102h-38.54v19.6h35.64v7.4707h-35.64v21.885h39.199v7.6904h-47.725v-64.556zm23.862 0z"/>
        <path id="path4397"
              d="m469.13 266.87q0.30762 5.4932 2.5928 8.9209 4.3506 6.416 15.337 6.416 4.9219 0 8.9648-1.4062 7.8223-2.7246 7.8223-9.7559 0-5.2734-3.2959-7.5146-3.3398-2.1973-10.459-3.8232l-8.7451-1.9775q-8.5693-1.9336-12.129-4.2627-6.1523-4.043-6.1523-12.085 0-8.7012 6.0205-14.282 6.0205-5.5811 17.051-5.5811 10.151 0 17.227 4.9219 7.1191 4.8779 7.1191 15.645h-8.2178q-0.65918-5.1856-2.8125-7.9541-3.999-5.0537-13.579-5.0537-7.7344 0-11.118 3.252-3.3838 3.252-3.3838 7.5586 0 4.7461 3.9551 6.9434 2.5928 1.4062 11.733 3.5156l9.0527 2.0654q6.5479 1.4941 10.107 4.0869 6.1523 4.5264 6.1523 13.14 0 10.723-7.8223 15.337-7.7783 4.6143-18.105 4.6143-12.041 0-18.853-6.1523-6.8115-6.1084-6.6797-16.567h8.2178zm17.666-45.483z"/>
      </g>
      <rect id="rect" height="695.02" width="695.02" y="214.85" x="72.492" stroke-width="10" fill="none"/>
    </g>
  </symbol>

  <symbol id="react" viewBox="0 0 512 512">
    <path
      d="M418.2 177.2c-5.4-1.8-10.8-3.5-16.2-5.1.9-3.7 1.7-7.4 2.5-11.1 12.3-59.6 4.2-107.5-23.1-123.3-26.3-15.1-69.2.6-112.6 38.4-4.3 3.7-8.5 7.6-12.5 11.5-2.7-2.6-5.5-5.2-8.3-7.7-45.5-40.4-91.1-57.4-118.4-41.5-26.2 15.2-34 60.3-23 116.7 1.1 5.6 2.3 11.1 3.7 16.7-6.4 1.8-12.7 3.8-18.6 5.9C38.3 196.2 0 225.4 0 255.6c0 31.2 40.8 62.5 96.3 81.5 4.5 1.5 9 3 13.6 4.3-1.5 6-2.8 11.9-4 18-10.5 55.5-2.3 99.5 23.9 114.6 27 15.6 72.4-.4 116.6-39.1 3.5-3.1 7-6.3 10.5-9.7 4.4 4.3 9 8.4 13.6 12.4 42.8 36.8 85.1 51.7 111.2 36.6 27-15.6 35.8-62.9 24.4-120.5-.9-4.4-1.9-8.9-3-13.5 3.2-.9 6.3-1.9 9.4-2.9 57.7-19.1 99.5-50 99.5-81.7 0-30.3-39.4-59.7-93.8-78.4zM282.9 92.3c37.2-32.4 71.9-45.1 87.7-36 16.9 9.7 23.4 48.9 12.8 100.4-.7 3.4-1.4 6.7-2.3 10-22.2-5-44.7-8.6-67.3-10.6-13-18.6-27.2-36.4-42.6-53.1 3.9-3.7 7.7-7.2 11.7-10.7zM167.2 307.5c5.1 8.7 10.3 17.4 15.8 25.9-15.6-1.7-31.1-4.2-46.4-7.5 4.4-14.4 9.9-29.3 16.3-44.5 4.6 8.8 9.3 17.5 14.3 26.1zm-30.3-120.3c14.4-3.2 29.7-5.8 45.6-7.8-5.3 8.3-10.5 16.8-15.4 25.4-4.9 8.5-9.7 17.2-14.2 26-6.3-14.9-11.6-29.5-16-43.6zm27.4 68.9c6.6-13.8 13.8-27.3 21.4-40.6s15.8-26.2 24.4-38.9c15-1.1 30.3-1.7 45.9-1.7s31 .6 45.9 1.7c8.5 12.6 16.6 25.5 24.3 38.7s14.9 26.7 21.7 40.4c-6.7 13.8-13.9 27.4-21.6 40.8-7.6 13.3-15.7 26.2-24.2 39-14.9 1.1-30.4 1.6-46.1 1.6s-30.9-.5-45.6-1.4c-8.7-12.7-16.9-25.7-24.6-39s-14.8-26.8-21.5-40.6zm180.6 51.2c5.1-8.8 9.9-17.7 14.6-26.7 6.4 14.5 12 29.2 16.9 44.3-15.5 3.5-31.2 6.2-47 8 5.4-8.4 10.5-17 15.5-25.6zm14.4-76.5c-4.7-8.8-9.5-17.6-14.5-26.2-4.9-8.5-10-16.9-15.3-25.2 16.1 2 31.5 4.7 45.9 8-4.6 14.8-10 29.2-16.1 43.4zM256.2 118.3c10.5 11.4 20.4 23.4 29.6 35.8-19.8-.9-39.7-.9-59.5 0 9.8-12.9 19.9-24.9 29.9-35.8zM140.2 57c16.8-9.8 54.1 4.2 93.4 39 2.5 2.2 5 4.6 7.6 7-15.5 16.7-29.8 34.5-42.9 53.1-22.6 2-45 5.5-67.2 10.4-1.3-5.1-2.4-10.3-3.5-15.5-9.4-48.4-3.2-84.9 12.6-94zm-24.5 263.6c-4.2-1.2-8.3-2.5-12.4-3.9-21.3-6.7-45.5-17.3-63-31.2-10.1-7-16.9-17.8-18.8-29.9 0-18.3 31.6-41.7 77.2-57.6 5.7-2 11.5-3.8 17.3-5.5 6.8 21.7 15 43 24.5 63.6-9.6 20.9-17.9 42.5-24.8 64.5zm116.6 98c-16.5 15.1-35.6 27.1-56.4 35.3-11.1 5.3-23.9 5.8-35.3 1.3-15.9-9.2-22.5-44.5-13.5-92 1.1-5.6 2.3-11.2 3.7-16.7 22.4 4.8 45 8.1 67.9 9.8 13.2 18.7 27.7 36.6 43.2 53.4-3.2 3.1-6.4 6.1-9.6 8.9zm24.5-24.3c-10.2-11-20.4-23.2-30.3-36.3 9.6.4 19.5.6 29.5.6 10.3 0 20.4-.2 30.4-.7-9.2 12.7-19.1 24.8-29.6 36.4zm130.7 30c-.9 12.2-6.9 23.6-16.5 31.3-15.9 9.2-49.8-2.8-86.4-34.2-4.2-3.6-8.4-7.5-12.7-11.5 15.3-16.9 29.4-34.8 42.2-53.6 22.9-1.9 45.7-5.4 68.2-10.5 1 4.1 1.9 8.2 2.7 12.2 4.9 21.6 5.7 44.1 2.5 66.3zm18.2-107.5c-2.8.9-5.6 1.8-8.5 2.6-7-21.8-15.6-43.1-25.5-63.8 9.6-20.4 17.7-41.4 24.5-62.9 5.2 1.5 10.2 3.1 15 4.7 46.6 16 79.3 39.8 79.3 58 0 19.6-34.9 44.9-84.8 61.4zm-149.7-15c25.3 0 45.8-20.5 45.8-45.8s-20.5-45.8-45.8-45.8c-25.3 0-45.8 20.5-45.8 45.8s20.5 45.8 45.8 45.8z"/>
  </symbol>

  <symbol id="redux" viewBox="0 0 256 244">
    <path
      d="M177.381 169.733c9.447-.978 16.614-9.122 16.288-18.896-.325-9.773-8.47-17.592-18.243-17.592h-.651c-10.1.326-17.918 8.796-17.592 18.895.326 4.887 2.28 9.122 5.212 12.054-11.076 21.828-28.016 37.791-53.426 51.148-17.266 9.122-35.183 12.38-53.1 10.1-14.66-1.955-26.062-8.47-33.23-19.222-10.424-15.963-11.401-33.23-2.605-50.496 6.19-12.38 15.962-21.502 22.152-26.063-1.303-4.235-3.258-11.402-4.235-16.614-47.237 34.207-42.35 80.468-28.016 102.295 10.75 16.29 32.577 26.389 56.684 26.389 6.515 0 13.03-.652 19.546-2.28 41.699-8.145 73.299-32.905 91.216-69.718zm57.336-40.397c-24.759-28.995-61.245-44.958-102.944-44.958h-5.212c-2.932-5.864-9.122-9.774-15.963-9.774h-.652C99.848 74.93 92.03 83.4 92.355 93.5c.326 9.773 8.47 17.592 18.243 17.592h.651c7.167-.326 13.357-4.887 15.963-11.077h5.864c24.759 0 48.214 7.167 69.39 21.176 16.288 10.751 28.016 24.76 34.531 41.7 5.538 13.683 5.212 27.04-.652 38.443-9.121 17.266-24.432 26.714-44.63 26.714-13.031 0-25.41-3.91-31.926-6.842-3.583 3.258-10.099 8.47-14.66 11.729 14.009 6.515 28.343 10.099 42.025 10.099 31.274 0 54.404-17.267 63.2-34.533 9.447-18.896 8.795-51.474-15.637-79.165zM69.225 175.27c.326 9.774 8.47 17.592 18.243 17.592h.652c10.099-.325 17.917-8.796 17.591-18.895-.325-9.774-8.47-17.592-18.243-17.592h-.651c-.652 0-1.63 0-2.28.325-13.357-22.153-18.895-46.26-16.94-72.323 1.302-19.547 7.818-36.488 19.22-50.497 9.447-12.054 27.69-17.918 40.07-18.243 34.531-.652 49.19 42.351 50.168 59.618 4.235.977 11.402 3.258 16.289 4.887C189.434 27.366 156.857 0 125.584 0c-29.32 0-56.359 21.176-67.11 52.451-14.985 41.7-5.212 81.771 13.031 113.372-1.628 2.28-2.606 5.864-2.28 9.448z"/>
  </symbol>

  <symbol id="sass" viewBox="0 0 640 512">
    <path
      d="M301.84 378.92c-.3.6-.6 1.08 0 0zm249.13-87a131.16 131.16 0 0 0-58 13.5c-5.9-11.9-12-22.3-13-30.1-1.2-9.1-2.5-14.5-1.1-25.3s7.7-26.1 7.6-27.2-1.4-6.6-14.3-6.7-24 2.5-25.29 5.9a122.83 122.83 0 0 0-5.3 19.1c-2.3 11.7-25.79 53.5-39.09 75.3-4.4-8.5-8.1-16-8.9-22-1.2-9.1-2.5-14.5-1.1-25.3s7.7-26.1 7.6-27.2-1.4-6.6-14.29-6.7-24 2.5-25.3 5.9-2.7 11.4-5.3 19.1-33.89 77.3-42.08 95.4c-4.2 9.2-7.8 16.6-10.4 21.6-.4.8-.7 1.3-.9 1.7.3-.5.5-1 .5-.8-2.2 4.3-3.5 6.7-3.5 6.7v.1c-1.7 3.2-3.6 6.1-4.5 6.1-.6 0-1.9-8.4.3-19.9 4.7-24.2 15.8-61.8 15.7-63.1-.1-.7 2.1-7.2-7.3-10.7-9.1-3.3-12.4 2.2-13.2 2.2s-1.4 2-1.4 2 10.1-42.4-19.39-42.4c-18.4 0-44 20.2-56.58 38.5-7.9 4.3-25 13.6-43 23.5-6.9 3.8-14 7.7-20.7 11.4-.5-.5-.9-1-1.4-1.5-35.79-38.2-101.87-65.2-99.07-116.5 1-18.7 7.5-67.8 127.07-127.4 98-48.8 176.35-35.4 189.84-5.6 19.4 42.5-41.89 121.6-143.66 133-38.79 4.3-59.18-10.7-64.28-16.3-5.3-5.9-6.1-6.2-8.1-5.1-3.3 1.8-1.2 7 0 10.1 3 7.9 15.5 21.9 36.79 28.9 18.7 6.1 64.18 9.5 119.17-11.8 61.78-23.8 109.87-90.1 95.77-145.6C386.52 18.32 293-.18 204.57 31.22c-52.69 18.7-109.67 48.1-150.66 86.4-48.69 45.6-56.48 85.3-53.28 101.9 11.39 58.9 92.57 97.3 125.06 125.7-1.6.9-3.1 1.7-4.5 2.5-16.29 8.1-78.18 40.5-93.67 74.7-17.5 38.8 2.9 66.6 16.29 70.4 41.79 11.6 84.58-9.3 107.57-43.6s20.2-79.1 9.6-99.5c-.1-.3-.3-.5-.4-.8 4.2-2.5 8.5-5 12.8-7.5 8.29-4.9 16.39-9.4 23.49-13.3-4 10.8-6.9 23.8-8.4 42.6-1.8 22 7.3 50.5 19.1 61.7 5.2 4.9 11.49 5 15.39 5 13.8 0 20-11.4 26.89-25 8.5-16.6 16-35.9 16-35.9s-9.4 52.2 16.3 52.2c9.39 0 18.79-12.1 23-18.3v.1s.2-.4.7-1.2c1-1.5 1.5-2.4 1.5-2.4v-.3c3.8-6.5 12.1-21.4 24.59-46 16.2-31.8 31.69-71.5 31.69-71.5a201.24 201.24 0 0 0 6.2 25.8c2.8 9.5 8.7 19.9 13.4 30-3.8 5.2-6.1 8.2-6.1 8.2a.31.31 0 0 0 .1.2c-3 4-6.4 8.3-9.9 12.5-12.79 15.2-28 32.6-30 37.6-2.4 5.9-1.8 10.3 2.8 13.7 3.4 2.6 9.4 3 15.69 2.5 11.5-.8 19.6-3.6 23.5-5.4a82.2 82.2 0 0 0 20.19-10.6c12.5-9.2 20.1-22.4 19.4-39.8-.4-9.6-3.5-19.2-7.3-28.2 1.1-1.6 2.3-3.3 3.4-5C434.8 301.72 450.1 270 450.1 270a201.24 201.24 0 0 0 6.2 25.8c2.4 8.1 7.09 17 11.39 25.7-18.59 15.1-30.09 32.6-34.09 44.1-7.4 21.3-1.6 30.9 9.3 33.1 4.9 1 11.9-1.3 17.1-3.5a79.46 79.46 0 0 0 21.59-11.1c12.5-9.2 24.59-22.1 23.79-39.6-.3-7.9-2.5-15.8-5.4-23.4 15.7-6.6 36.09-10.2 62.09-7.2 55.68 6.5 66.58 41.3 64.48 55.8s-13.8 22.6-17.7 25-5.1 3.3-4.8 5.1c.5 2.6 2.3 2.5 5.6 1.9 4.6-.8 29.19-11.8 30.29-38.7 1.6-34-31.09-71.4-89-71.1zm-429.18 144.7c-18.39 20.1-44.19 27.7-55.28 21.3C54.61 451 59.31 421.42 82 400c13.8-13 31.59-25 43.39-32.4 2.7-1.6 6.6-4 11.4-6.9.8-.5 1.2-.7 1.2-.7.9-.6 1.9-1.1 2.9-1.7 8.29 30.4.3 57.2-19.1 78.3zm134.36-91.4c-6.4 15.7-19.89 55.7-28.09 53.6-7-1.8-11.3-32.3-1.4-62.3 5-15.1 15.6-33.1 21.9-40.1 10.09-11.3 21.19-14.9 23.79-10.4 3.5 5.9-12.2 49.4-16.2 59.2zm111 53c-2.7 1.4-5.2 2.3-6.4 1.6-.9-.5 1.1-2.4 1.1-2.4s13.9-14.9 19.4-21.7c3.2-4 6.9-8.7 10.89-13.9 0 .5.1 1 .1 1.6-.13 17.9-17.32 30-25.12 34.8zm85.58-19.5c-2-1.4-1.7-6.1 5-20.7 2.6-5.7 8.59-15.3 19-24.5a36.18 36.18 0 0 1 1.9 10.8c-.1 22.5-16.2 30.9-25.89 34.4z"/>
  </symbol>

  <symbol id="typescript" viewBox="0 0 27 26">
    <path clip-rule="evenodd"
          d="m.98608 0h24.32332c.5446 0 .9861.436522.9861.975v24.05c0 .5385-.4415.975-.9861.975h-24.32332c-.544597 0-.98608-.4365-.98608-.975v-24.05c0-.538478.441483-.975.98608-.975zm13.63142 13.8324v-2.1324h-9.35841v2.1324h3.34111v9.4946h2.6598v-9.4946zm1.0604 9.2439c.4289.2162.9362.3784 1.5218.4865.5857.1081 1.2029.1622 1.8518.1622.6324 0 1.2331-.0595 1.8023-.1784.5691-.1189 1.0681-.3149 1.497-.5879s.7685-.6297 1.0187-1.0703.3753-.9852.3753-1.6339c0-.4703-.0715-.8824-.2145-1.2365-.1429-.3541-.3491-.669-.6186-.9447-.2694-.2757-.5925-.523-.9692-.7419s-.8014-.4257-1.2743-.6203c-.3465-.1406-.6572-.2771-.9321-.4095-.275-.1324-.5087-.2676-.7011-.4054-.1925-.1379-.3409-.2838-.4454-.4379-.1045-.154-.1567-.3284-.1567-.523 0-.1784.0467-.3392.1402-.4824.0935-.1433.2254-.2663.3959-.369s.3794-.1824.6269-.2392c.2474-.0567.5224-.0851.8248-.0851.22 0 .4523.0162.697.0486.2447.0325.4908.0825.7382.15.2475.0676.4881.1527.7218.2555.2337.1027.4495.2216.6475.3567v-2.4244c-.4015-.1514-.84-.2636-1.3157-.3365-.4756-.073-1.0214-.1095-1.6373-.1095-.6268 0-1.2207.0662-1.7816.1987-.5609.1324-1.0544.3392-1.4806.6203s-.763.6392-1.0104 1.0743c-.2475.4352-.3712.9555-.3712 1.5609 0 .7731.2268 1.4326.6805 1.9785.4537.546 1.1424 1.0082 2.0662 1.3866.363.146.7011.2892 1.0146.4298.3134.1405.5842.2865.8124.4378.2282.1514.4083.3162.5403.4946s.198.3811.198.6082c0 .1676-.0413.323-.1238.4662-.0825.1433-.2076.2676-.3753.373s-.3766.1879-.6268.2473c-.2502.0595-.5431.0892-.8785.0892-.5719 0-1.1383-.0986-1.6992-.2959-.5608-.1973-1.0805-.4933-1.5589-.8879z"
          fill-rule="evenodd"></path>
  </symbol>

  <symbol  id="angular"  viewBox="0 0 512 512"><g id="SVGRepo_bgCarrier" stroke-width="0"></g><g id="SVGRepo_tracerCarrier" stroke-linecap="round" stroke-linejoin="round"></g><g id="SVGRepo_iconCarrier">
    <polygon points="213.57 256 298.42 256 255.99 166.64 213.57 256"></polygon>
    <path d="M256,32,32,112,78.12,384,256,480l177.75-96L480,112Zm88,320-26.59-56H194.58L168,352H128L256,72,384,352Z"></path></g>
  </symbol>

  <symbol  id="nextjs" shape-rendering="geometricPrecision" text-rendering="geometricPrecision" image-rendering="optimizeQuality" fill-rule="evenodd" clip-rule="evenodd" viewBox="0 0 512 103.22"><path d="M340.36.04h89.18V16.5h-35.38v86.6h-17.69V16.5h-36.11V.04zM503.8 70.86c-.19-1.82-1.03-3.25-2.49-4.27-1.48-1.03-3.38-1.54-5.72-1.54-1.64 0-3.05.25-4.23.74-1.17.49-2.08 1.15-2.71 1.99-.62.84-.93 1.8-.96 2.87 0 .9.22 1.68.64 2.33.42.66.98 1.22 1.71 1.67.72.46 1.52.83 2.4 1.14.89.31 1.77.57 2.66.78l4.09 1c1.64.38 3.23.89 4.76 1.54 1.52.64 2.9 1.45 4.11 2.43 1.21.98 2.17 2.16 2.87 3.54.71 1.39 1.07 3.01 1.07 4.87 0 2.52-.65 4.73-1.95 6.64-1.31 1.9-3.19 3.39-5.66 4.46-2.46 1.07-5.43 1.61-8.93 1.61-3.38 0-6.33-.52-8.81-1.56-2.49-1.03-4.44-2.54-5.84-4.52-1.4-1.99-2.15-4.41-2.26-7.26h7.76c.11 1.49.59 2.73 1.41 3.74.82.99 1.9 1.72 3.22 2.22 1.33.48 2.82.73 4.46.73 1.71 0 3.22-.26 4.53-.77 1.29-.51 2.31-1.21 3.04-2.14.75-.9 1.12-1.98 1.13-3.21-.01-1.12-.35-2.05-.99-2.79-.66-.73-1.57-1.34-2.74-1.84-1.17-.49-2.54-.94-4.1-1.33l-4.96-1.25c-3.58-.91-6.42-2.3-8.5-4.15-2.08-1.86-3.11-4.31-3.11-7.39 0-2.53.69-4.75 2.1-6.65 1.39-1.9 3.29-3.38 5.7-4.43 2.42-1.06 5.15-1.58 8.2-1.58 3.09 0 5.8.52 8.14 1.58 2.33 1.05 4.17 2.51 5.5 4.38s2.02 4 2.06 6.42h-7.6zm-40.09-11.8h7.84v30.19c-.01 2.78-.61 5.15-1.79 7.15-1.18 2-2.83 3.52-4.93 4.59-2.1 1.07-4.56 1.61-7.35 1.61-2.55 0-4.84-.46-6.88-1.36-2.04-.9-3.66-2.24-4.84-4.01-1.2-1.78-1.79-3.98-1.79-6.63h7.85c.01 1.16.28 2.16.78 3 .5.84 1.2 1.48 2.08 1.93.9.45 1.94.67 3.1.67 1.26 0 2.33-.26 3.21-.79.87-.52 1.55-1.3 2.01-2.34.46-1.03.7-2.3.71-3.82V59.06zm-30.19 43.41c-1.3 0-2.4-.45-3.32-1.35-.92-.89-1.38-1.98-1.37-3.27-.01-1.25.45-2.32 1.37-3.22.92-.9 2.02-1.35 3.32-1.35 1.25 0 2.34.45 3.26 1.35.93.9 1.4 1.97 1.41 3.22-.01.85-.22 1.63-.66 2.33-.44.71-1 1.26-1.71 1.67-.7.41-1.46.62-2.3.62zm-329-.14L22.11 0H0v103.06h17.69V22.03l65.22 81.07h110.78V86.64H122.2v-27.2h57.49V42.98H122.2V16.5h71.49V.04h-89.18V16.5h.01v85.83zM261.98 73.7l-11.6-14.42-35.37 43.94h23.21l23.76-29.52zM238.22.09h-23.15l82.92 103.05h23.21l-41.46-51.49L321.14.16 297.99.2l-29.84 37.06L238.22.09z"/>
  </symbol>

  <symbol id="vue" viewBox="0 0 32 32">
    <path d="M24.306 4.019h-4.806l-3.5 5.537-3-5.537h-11l14 23.981 14-23.981zM5.481 6.019h3.363l7.156 12.387 7.15-12.387h3.363l-10.512 18.012z"/>
  </symbol>

  <symbol id="graphql" viewBox="0 0 14 14" >
    <path d="m 8.0255298,2.3755005 2.4674992,1.425 c 0.408,-0.4295 1.0865,-0.4465 1.516,-0.0385 0.074,0.07 0.137,0.1505 0.1885,0.2385 0.2945,0.514 0.116,1.1695 -0.398,1.464 -0.087,0.05 -0.1805,0.0875 -0.279,0.1115 l 0,2.8495 c 0.573,0.1365 0.927,0.7115 0.79,1.2845 -0.024,0.102 -0.0635,0.2 -0.116,0.2905005 -0.296,0.5115 -0.9505,0.687 -1.4635,0.391 -0.098,-0.0565 -0.1875,-0.1295 -0.263,-0.2145 L 8.0155298,11.593 c 0.1859999,0.562 -0.119,1.1675 -0.6805,1.353 -0.1085,0.0355 -0.221,0.054 -0.335,0.054 -0.5904999,5e-4 -1.0694999,-0.4775 -1.0699999,-1.068 0,-0.1025 0.0145,-0.205 0.044,-0.3045 L 3.50603,10.204001 c -0.4079999,0.427 -1.0854999,0.4435 -1.5129999,0.035 -0.4269999,-0.4080005 -0.4429999,-1.0855005 -0.035,-1.5130005 0.1415,-0.1485 0.323,-0.253 0.522,-0.3015 l 5e-4,-2.8495 c -0.5749999,-0.138 -0.9289999,-0.7165 -0.7904999,-1.292 0.0235,-0.099 0.0615,-0.1945 0.112,-0.283 0.2959999,-0.512 0.9509999,-0.687 1.4634999,-0.391 0.0885,0.0505 0.1695,0.114 0.2399999,0.1885 l 2.4689999,-1.425 c -0.168,-0.5665 0.1555,-1.161 0.7204999,-1.3285 0.0985,-0.0295 0.202,-0.044 0.305,-0.044 0.5905,-5e-4 1.0694999,0.477 1.0699999,1.067 5e-4,0.1045 -0.015,0.209 -0.0445,0.3085 z m -0.2575,0.4385 c -0.0095,0.0105 -0.0185,0.0195 -0.029,0.029 l 3.2304992,5.595 c 0.013,-0.0045 0.028,-0.008 0.041,-0.0115 l 0,-2.8535 c -0.5725,-0.1415 -0.920999,-0.721 -0.778999,-1.294 0.003,-0.012 0.006,-0.0245 0.0095,-0.036 l -2.4730002,-1.429 z m -1.5074999,0.0295 -0.03,-0.03 -2.4729999,1.426 c 0.1635,0.5675 -0.1635,1.159 -0.7304999,1.3225 -0.013,0.004 -0.0255,0.007 -0.038,0.0105 l 0,2.854 0.042,0.0115 3.2304998,-5.595 -0.001,5e-4 z m 1.0379999,0.2535 c -0.195,0.056 -0.4015,0.056 -0.596,0 l -3.2299998,5.5945 c 0.147,0.1415 0.251,0.3225 0.3,0.5205 l 6.4555,0 c 0.0485,-0.199 0.153499,-0.3805 0.301499,-0.522 l -3.2309992,-5.593 z m 0.493,8.1135005 2.4565002,-1.4190005 c -0.0075,-0.0235 -0.0135,-0.047 -0.019,-0.071 l -6.458,0 -0.0105,0.0415 2.4694999,1.4260005 c 0.194,-0.202 0.4669999,-0.3265 0.7699999,-0.3265 0.3135,0 0.595,0.1345 0.7915,0.349 z"/>
  </symbol>

</svg>
